<?xml version="1.0" encoding="UTF-8" standalone="no"?>
<svg
   xmlns:dc="http://purl.org/dc/elements/1.1/"
   xmlns:cc="http://creativecommons.org/ns#"
   xmlns:rdf="http://www.w3.org/1999/02/22-rdf-syntax-ns#"
   xmlns:svg="http://www.w3.org/2000/svg"
   xmlns="http://www.w3.org/2000/svg"
   xmlns:sodipodi="http://sodipodi.sourceforge.net/DTD/sodipodi-0.dtd"
   xmlns:inkscape="http://www.inkscape.org/namespaces/inkscape"
   version="1.1"
   viewBox="0 0 94.599998 94.800003"
   enable-background="new 0 0 129 129"
   id="svg4964"
   sodipodi:docname="edit.svg"
   width="94.599998"
   height="94.800003"
   inkscape:version="0.92.3 (2405546, 2018-03-11)">
  <metadata
     id="metadata4970">
    <rdf:RDF>
      <cc:Work
         rdf:about="">
        <dc:format>image/svg+xml</dc:format>
        <dc:type
           rdf:resource="http://purl.org/dc/dcmitype/StillImage" />
        <dc:title></dc:title>
      </cc:Work>
    </rdf:RDF>
  </metadata>
  <defs
     id="defs4968" />
  <sodipodi:namedview
     pagecolor="#ffffff"
     bordercolor="#666666"
     borderopacity="1"
     objecttolerance="10"
     gridtolerance="10"
     guidetolerance="10"
     inkscape:pageopacity="0"
     inkscape:pageshadow="2"
     inkscape:window-width="1920"
     inkscape:window-height="1019"
     id="namedview4966"
     showgrid="false"
     inkscape:zoom="3.2209302"
     inkscape:cx="43.158617"
     inkscape:cy="47.983334"
     inkscape:window-x="0"
     inkscape:window-y="0"
     inkscape:window-maximized="1"
     inkscape:current-layer="svg4964" />
  <path
     d="m 0.09999924,71.100002 -0.10000000293944,19.5 c 0,1.1 0.40000000293944,2.2 1.19999996293944,3 0.8,0.8 1.8,1.2 2.9,1.2 l 19.3999998,-0.1 c 1.1,0 2.1,-0.4 2.9,-1.2 l 67,-67 c 1.6,-1.6 1.6,-4.2 0,-5.9 l -19.2,-19.4000005 c -1.6,-1.59999997 -4.2,-1.59999997 -5.9,0 l -13.4,13.5000005 -53.5999998,53.5 c -0.69999996,0.8 -1.19999996,1.8 -1.19999996,2.9 z m 71.19999976,-61.1 13.5,13.5 -13.5,13.5 -13.5,-13.5 z m -62.8999998,62.9 49.3999998,-49.4 13.5,13.5 -49.4,49.3 -13.5999998,0.1 z"
     id="path4958"
     inkscape:connector-curvature="0"
     sodipodi:nodetypes="ccsccssccccccccccccccccc"
     style="fill:#ffad0d;fill-opacity:1" />
</svg>
