<?xml version="1.0" encoding="UTF-8" standalone="no"?>
<svg
   xmlns:dc="http://purl.org/dc/elements/1.1/"
   xmlns:cc="http://creativecommons.org/ns#"
   xmlns:rdf="http://www.w3.org/1999/02/22-rdf-syntax-ns#"
   xmlns:svg="http://www.w3.org/2000/svg"
   xmlns="http://www.w3.org/2000/svg"
   xmlns:sodipodi="http://sodipodi.sourceforge.net/DTD/sodipodi-0.dtd"
   xmlns:inkscape="http://www.inkscape.org/namespaces/inkscape"
   height="427.25699"
   viewBox="-41 0 291.23402 320.53372"
   width="388.31201"
   version="1.1"
   id="svg194"
   sodipodi:docname="shield.svg"
   inkscape:version="0.92.3 (2405546, 2018-03-11)">
  <metadata
     id="metadata200">
    <rdf:RDF>
      <cc:Work
         rdf:about="">
        <dc:format>image/svg+xml</dc:format>
        <dc:type
           rdf:resource="http://purl.org/dc/dcmitype/StillImage" />
        <dc:title></dc:title>
      </cc:Work>
    </rdf:RDF>
  </metadata>
  <defs
     id="defs198" />
  <sodipodi:namedview
     pagecolor="#ffffff"
     bordercolor="#666666"
     borderopacity="1"
     objecttolerance="10"
     gridtolerance="10"
     guidetolerance="10"
     inkscape:pageopacity="0"
     inkscape:pageshadow="2"
     inkscape:window-width="1920"
     inkscape:window-height="1019"
     id="namedview196"
     showgrid="false"
     units="px"
     inkscape:zoom="1.6664439"
     inkscape:cx="206.72764"
     inkscape:cy="225.33012"
     inkscape:window-x="0"
     inkscape:window-y="0"
     inkscape:window-maximized="1"
     inkscape:current-layer="svg194" />
  <path
     d="M 246.56831,22.173641 105.96271,0.82414043 c -2.08593,-1.11328 -4.58594,-1.09766 -6.656258,0.0391 L -37.408521,22.212701 c -2.24219,1.23047 -3.632816,3.58203 -3.632816,6.14063 v 97.867189 c 0.08203,80.44922 47.7461396,153.23047 121.45715,185.46094 l 18.976579,8.26953 c 1.773438,0.77344 3.792978,0.77734 5.570318,0.008 l 21.38284,-9.23437 C 201.42374,279.19318 250.26754,205.7088 250.27535,124.27911 V 28.353331 c 0,-2.58594 -1.42578,-4.96485 -3.70704,-6.17969 z"
     id="path190"
     inkscape:connector-curvature="0"
     sodipodi:nodetypes="ccccsccccccsc"
     style="fill:#e0e4e8;fill-opacity:1;stroke:none;stroke-opacity:0.74672493" />
  <g
     id="g4911"
     transform="matrix(0.33664046,0,0,0.33664046,45.985519,89.480038)"
     style="fill:#96a1b3;fill-opacity:1">
    <g
       id="g4855"
       style="fill:#96a1b3;fill-opacity:1">
	<path
   id="path4853"
   d="M 336.559,68.611 231.016,174.165 336.559,279.714 c 15.699,15.705 15.699,41.145 0,56.85 -7.844,7.844 -18.128,11.769 -28.407,11.769 -10.296,0 -20.581,-3.919 -28.419,-11.769 L 174.167,231.003 68.609,336.563 c -7.843,7.844 -18.128,11.769 -28.416,11.769 -10.285,0 -20.563,-3.919 -28.413,-11.769 -15.699,-15.698 -15.699,-41.139 0,-56.85 L 117.32,174.164 11.774,68.611 C -3.925,52.912 -3.925,27.466 11.774,11.767 27.47,-3.92 52.901,-3.92 68.603,11.767 L 174.166,117.321 279.721,11.767 c 15.705,-15.687 41.139,-15.687 56.832,0 15.705,15.699 15.705,41.145 0.006,56.844 z"
   inkscape:connector-curvature="0"
   style="fill:#96a1b3;fill-opacity:1" />

</g>
    <g
       id="g4857"
       style="fill:#96a1b3;fill-opacity:1">
</g>
    <g
       id="g4859"
       style="fill:#96a1b3;fill-opacity:1">
</g>
    <g
       id="g4861"
       style="fill:#96a1b3;fill-opacity:1">
</g>
    <g
       id="g4863"
       style="fill:#96a1b3;fill-opacity:1">
</g>
    <g
       id="g4865"
       style="fill:#96a1b3;fill-opacity:1">
</g>
    <g
       id="g4867"
       style="fill:#96a1b3;fill-opacity:1">
</g>
    <g
       id="g4869"
       style="fill:#96a1b3;fill-opacity:1">
</g>
    <g
       id="g4871"
       style="fill:#96a1b3;fill-opacity:1">
</g>
    <g
       id="g4873"
       style="fill:#96a1b3;fill-opacity:1">
</g>
    <g
       id="g4875"
       style="fill:#96a1b3;fill-opacity:1">
</g>
    <g
       id="g4877"
       style="fill:#96a1b3;fill-opacity:1">
</g>
    <g
       id="g4879"
       style="fill:#96a1b3;fill-opacity:1">
</g>
    <g
       id="g4881"
       style="fill:#96a1b3;fill-opacity:1">
</g>
    <g
       id="g4883"
       style="fill:#96a1b3;fill-opacity:1">
</g>
    <g
       id="g4885"
       style="fill:#96a1b3;fill-opacity:1">
</g>
  </g>
</svg>
